<?xml version="1.0" encoding="UTF-8" standalone="no" ?>
<!--
  - /*
  -  *
  -  *  *
  -  *  *  * Copyright 2019-2022 the original author or authors.
  -  *  *  *
  -  *  *  * Licensed under the Apache License, Version 2.0 (the "License");
  -  *  *  * you may not use this file except in compliance with the License.
  -  *  *  * You may obtain a copy of the License at
  -  *  *  *
  -  *  *  *      https://www.apache.org/licenses/LICENSE-2.0
  -  *  *  *
  -  *  *  * Unless required by applicable law or agreed to in writing, software
  -  *  *  * distributed under the License is distributed on an "AS IS" BASIS,
  -  *  *  * WITHOUT WARRANTIES OR CONDITIONS OF ANY KIND, either express or implied.
  -  *  *  * See the License for the specific language governing permissions and
  -  *  *  * limitations under the License.
  -  *  *
  -  *
  -  */
  -->

<!DOCTYPE svg PUBLIC "-//W3C//DTD SVG 1.1//EN" "http://www.w3.org/Graphics/SVG/1.1/DTD/svg11.dtd">
<svg xmlns="http://www.w3.org/2000/svg" version="1.1" width="200" height="70"
	 viewBox="0 -50 6000 2100" xml:space="preserve">
<desc>Created with Fabric.js 4.6.0</desc>
<defs>
</defs>
<g transform="matrix(30.14 0 0 30.14 991.66 1018.78)" id="-FS38qg3Ry0a7v9X3t3Xn"  >
<g style="" vector-effect="non-scaling-stroke"   >
		<g transform="matrix(1 0 0 1 -23.5 10.55)" id="u1BEYTAC_e2zI0wVjxJLY"  >
<path style="stroke: none; stroke-width: 1; stroke-dasharray: none; stroke-linecap: round; stroke-dashoffset: 0; stroke-linejoin: round; stroke-miterlimit: 4; fill: rgb(147,213,0); fill-rule: nonzero; opacity: 1;" vector-effect="non-scaling-stroke"  transform=" translate(-9, -43.05)" d="M 16.913 36.796 L 0.026 36.796 L 0.036 37.043 L 0.065 37.519 L 0.077 37.722 L 0.123 38.272 L 0.134 38.394999999999996 L 0.2 39.00299999999999 L 0.20600000000000002 39.06199999999999 L 0.29200000000000004 39.715999999999994 C 0.48700000000000004 41.06999999999999 0.778 42.403999999999996 1.166 43.71399999999999 L 1.172 43.730999999999995 L 1.3739999999999999 44.382 L 1.3849999999999998 44.418 L 1.5709999999999997 44.971 L 1.6199999999999997 45.11 L 1.7939999999999996 45.588 L 1.8759999999999997 45.804 L 2.03 46.204 L 2.1519999999999997 46.501 L 2.2809999999999997 46.809999999999995 L 2.4519999999999995 47.18599999999999 L 2.5519999999999996 47.41499999999999 L 2.7619999999999996 47.864999999999995 L 2.8319999999999994 48.00899999999999 L 3.0849999999999995 48.519999999999996 L 3.1249999999999996 48.598 L 3.4339999999999997 49.184 L 3.4999999999999996 49.297999999999995 L 17.97 40.565999999999995 C 17.405524295933468 39.37848599221689 17.04869485132558 38.103032119594744 16.915 36.794999999999995 z M 0.824 44.545 L 0.829 44.56 L 1.374 44.389 z" stroke-linecap="round" />
</g>
		<g transform="matrix(1 0 0 1 -16.48 20.48)" id="daTjKULIXJIS3T9KXTZJP"  >
<path style="stroke: none; stroke-width: 1; stroke-dasharray: none; stroke-linecap: round; stroke-dashoffset: 0; stroke-linejoin: round; stroke-miterlimit: 4; fill: rgb(77,90,49); fill-rule: nonzero; opacity: 1;" vector-effect="non-scaling-stroke"  transform=" translate(-16.02, -52.98)" d="M 21.063 44.553 L 9.122 56.494 L 9.307 56.664 L 9.817 57.117000000000004 L 10.217 57.461000000000006 L 10.327 57.55200000000001 L 10.791 57.92600000000001 L 10.851 57.973000000000006 L 11.362 58.36500000000001 C 11.369 58.36900000000001 11.375 58.37400000000001 11.381 58.37900000000001 L 13.607 59.88300000000001 L 13.687 59.93200000000001 L 14.125 60.19100000000001 L 14.394 60.34400000000001 L 14.649000000000001 60.48700000000001 L 15.114 60.73800000000001 L 15.179 60.772000000000006 L 16.495 61.41100000000001 L 22.921 45.80100000000001 C 22.25904711573631 45.44781652276765 21.633377930309514 45.03048043869818 21.053 44.55500000000001 z" stroke-linecap="round" />
</g>
		<g transform="matrix(1 0 0 1 -20.36 16.15)" id="O1F_mlWpDLBou1524aWsT"  >
<path style="stroke: none; stroke-width: 1; stroke-dasharray: none; stroke-linecap: round; stroke-dashoffset: 0; stroke-linejoin: round; stroke-miterlimit: 4; fill: rgb(107,164,58); fill-rule: nonzero; opacity: 1;" vector-effect="non-scaling-stroke"  transform=" translate(-12.14, -48.65)" d="M 19.825 43.368 L 19.454 42.931000000000004 L 19.146 42.533 L 18.816000000000003 42.066 L 18.507 41.584 L 4.065000000000001 50.283 L 4.809000000000001 51.451 L 4.869000000000001 51.539 L 4.872000000000001 51.545 L 5.648000000000001 52.639 L 5.682 52.685 L 6.033 53.142 L 6.454000000000001 53.665000000000006 L 6.5440000000000005 53.779 L 6.889 54.186 L 7.041 54.359 L 7.340000000000001 54.702000000000005 L 7.510000000000001 54.886 L 7.587000000000001 54.969 L 7.816000000000001 55.209 L 7.907000000000001 55.303000000000004 L 8.307 55.712 L 20.22 43.79900000000001 L 19.83 43.382000000000005 z" stroke-linecap="round" />
</g>
		<g transform="matrix(1 0 0 1 8.89 19.44)" id="0ZljEKExoLH4ddz1_RVDe"  >
<path style="stroke: none; stroke-width: 1; stroke-dasharray: none; stroke-linecap: round; stroke-dashoffset: 0; stroke-linejoin: round; stroke-miterlimit: 4; fill: rgb(77,90,49); fill-rule: nonzero; opacity: 1;" vector-effect="non-scaling-stroke"  transform=" translate(-41.39, -51.94)" d="M 35.616 44.547 L 35.217999999999996 44.855999999999995 L 35.248 44.90599999999999 L 43.934 59.32399999999999 L 45.122 58.50599999999999 C 45.971 57.87899999999999 46.785 57.206999999999994 47.56 56.49099999999999 L 35.663 44.595 z" stroke-linecap="round" />
</g>
		<g transform="matrix(1 0 0 1 10.34 27.51)" id="dHPyJjplKBy_CXjINvtoF"  >
<path style="stroke: none; stroke-width: 1; stroke-dasharray: none; stroke-linecap: round; stroke-dashoffset: 0; stroke-linejoin: round; stroke-miterlimit: 4; fill: rgb(147,213,0); fill-rule: nonzero; opacity: 1;" vector-effect="non-scaling-stroke"  transform=" translate(-42.84, -60.01)" d="M 42.835 60.01 L 42.855000000000004 59.998999999999995 L 42.854000000000006 59.998 L 42.83500000000001 60.009 z M 42.827 60.016 L 42.827999999999996 60.016 z" stroke-linecap="round" />
</g>
		<g transform="matrix(1 0 0 1 10.4 27.47)" id="5lZwaR7r0h4TY1hvNqwAh"  >
<path style="stroke: none; stroke-width: 1; stroke-dasharray: none; stroke-linecap: round; stroke-dashoffset: 0; stroke-linejoin: round; stroke-miterlimit: 4; fill: rgb(147,213,0); fill-rule: nonzero; opacity: 1;" vector-effect="non-scaling-stroke"  transform=" translate(-42.9, -59.97)" d="M 42.855 59.993 L 42.968999999999994 59.936 L 42.96699999999999 59.932 L 42.85499999999999 59.999 z M 42.83 60.013000000000005 L 42.836 60.010000000000005 z" stroke-linecap="round" />
</g>
		<g transform="matrix(1 0 0 1 10.33 27.5)" id="LDPSdczIKdUf_hLbCCpr5"  >
<path style="stroke: none; stroke-width: 1; stroke-dasharray: none; stroke-linecap: round; stroke-dashoffset: 0; stroke-linejoin: round; stroke-miterlimit: 4; fill: rgb(147,213,0); fill-rule: nonzero; opacity: 1;" vector-effect="non-scaling-stroke"  transform=" translate(-42.83, -60)" d="M 42.827 60.015 L 42.827999999999996 60.015 L 42.806999999999995 59.980000000000004 z M 42.835 60.009 L 42.855000000000004 59.999 L 42.835 60.009 z M 42.824 60.015 L 42.818 60.018 L 42.824 60.016 z" stroke-linecap="round" />
</g>
		<g transform="matrix(1 0 0 1 10.33 27.52)" id="3cKSSKPyl-bl5FodQgmNY"  >
<path style="stroke: none; stroke-width: 1; stroke-dasharray: none; stroke-linecap: round; stroke-dashoffset: 0; stroke-linejoin: round; stroke-miterlimit: 4; fill: rgb(147,213,0); fill-rule: nonzero; opacity: 1;" vector-effect="non-scaling-stroke"  transform=" translate(-42.83, -60.02)" d="M 42.824 60.016 L 42.827 60.015 L 42.826 60.015 z" stroke-linecap="round" />
</g>
		<g transform="matrix(1 0 0 1 10.39 27.48)" id="90XmJjwG7-DF2VsgrfDRj"  >
<path style="stroke: none; stroke-width: 1; stroke-dasharray: none; stroke-linecap: round; stroke-dashoffset: 0; stroke-linejoin: round; stroke-miterlimit: 4; fill: rgb(147,213,0); fill-rule: nonzero; opacity: 1;" vector-effect="non-scaling-stroke"  transform=" translate(-42.89, -59.98)" d="M 42.83 60.013 L 42.827 60.015 L 42.836 60.009 z M 42.855 60 L 42.967999999999996 59.936 L 42.855 60 z M 42.967999999999996 59.936 L 42.965999999999994 59.932 z M 42.815 60.022 L 42.815999999999995 60.022 z" stroke-linecap="round" />
</g>
		<g transform="matrix(1 0 0 1 10.32 27.52)" id="eCJUL2KcgonzVFVlatWYd"  >
<path style="stroke: none; stroke-width: 1; stroke-dasharray: none; stroke-linecap: round; stroke-dashoffset: 0; stroke-linejoin: round; stroke-miterlimit: 4; fill: rgb(147,213,0); fill-rule: nonzero; opacity: 1;" vector-effect="non-scaling-stroke"  transform=" translate(-42.82, -60.02)" d="M 42.819 60.02 L 42.816 60.022000000000006 L 42.819 60.02 z" stroke-linecap="round" />
</g>
		<g transform="matrix(1 0 0 1 -6.45 5.5)" id="YxvFYOYK0y8vKLn6BJX6x"  >
<path style="stroke: none; stroke-width: 1; stroke-dasharray: none; stroke-linecap: round; stroke-dashoffset: 0; stroke-linejoin: round; stroke-miterlimit: 4; fill: rgb(147,213,0); fill-rule: nonzero; opacity: 1;" vector-effect="non-scaling-stroke"  transform=" translate(-26.05, -38)" d="M 42.671 59.443 L 34.269 45.501999999999995 L 33.769999999999996 45.779999999999994 L 33.257999999999996 46.03699999999999 C 31.716999999999995 46.76999999999999 30.031999999999996 47.15099999999999 28.325999999999993 47.15299999999999 C 27.214999999999993 47.15299999999999 26.109999999999992 46.99199999999999 25.044999999999995 46.67399999999999 L 24.504999999999995 46.483999999999995 L 23.965999999999994 46.29299999999999 L 17.551999999999992 61.870999999999995 L 17.598999999999993 61.888 L 17.647999999999993 61.907 L 17.648999999999994 61.907 L 17.661999999999995 61.913 L 18.892999999999997 62.38399999999999 C 20.766999999999996 63.044999999999995 22.705 63.50899999999999 24.674999999999997 63.767999999999994 L 24.906 63.79899999999999 L 25.604 63.87499999999999 L 25.717 63.88499999999999 L 26.276999999999997 63.93199999999999 L 26.467 63.94399999999999 L 26.956999999999997 63.97199999999999 L 27.256999999999998 63.98399999999999 L 27.647 63.99799999999999 L 28.343 64.00599999999999 C 29.919155317034452 64.0059538001702 31.492577109435565 63.874835317470115 33.04699999999999 63.61399999999999 L 33.126 63.60299999999998 L 33.62 63.51299999999998 L 33.906 63.458999999999975 L 34.195 63.397999999999975 L 34.676 63.29199999999997 L 34.763000000000005 63.27199999999997 C 37.12780552555882 62.72026738721927 39.412338389015204 61.868356412099835 41.56100000000001 60.736999999999966 L 41.56100000000001 60.73599999999997 L 41.97800000000001 60.50799999999997 L 42.82500000000001 60.029999999999966 L 42.81100000000001 59.98999999999997 L 42.83200000000001 60.02599999999997 L 42.85900000000001 60.00999999999997 L 42.970000000000006 59.94299999999997 z M 21.07 26.77 L 21.468 26.462 L 21.438 26.412 L 12.752999999999998 11.998999999999999 L 11.561999999999998 12.819999999999999 C 10.721999999999998 13.437999999999999 9.908999999999997 14.108999999999998 9.126999999999997 14.831999999999999 L 21.023999999999997 26.723 z" stroke-linecap="round" />
</g>
		<g transform="matrix(1 0 0 1 -10.27 -11)" id="Z5T2o5-Rme1lta802JeYg"  >
<path style="stroke: none; stroke-width: 1; stroke-dasharray: none; stroke-linecap: round; stroke-dashoffset: 0; stroke-linejoin: round; stroke-miterlimit: 4; fill: rgb(77,90,49); fill-rule: nonzero; opacity: 1;" vector-effect="non-scaling-stroke"  transform=" translate(-22.23, -21.5)" d="M 8.303 15.618 L 7.5120000000000005 16.444 C 6.633000000000001 17.395 5.83 18.387 5.105 19.426 L 5.001 19.575 L 4.759 19.932 L 4.513 20.307 L 4.4239999999999995 20.444 C 1.7391308002913575 24.662419022650166 0.22118723191626088 29.517491995379782 0.02499999999999858 34.514 L 0.010000000000000002 35.085 L 1.734723475976807e-18 35.656 L 16.848 35.656 L 16.875 35.085 L 16.907 34.514 C 17.128020566222844 32.26225261406555 18.012358214373002 30.126756427898933 19.448 28.378000000000004 C 19.562 28.232000000000003 19.703 28.095000000000002 19.832 27.953000000000003 L 20.215 27.529000000000003 z M 43.066 11.436 L 42.996 11.394 L 42.549 11.128 L 42.288 10.979000000000001 L 42.025 10.833 L 41.568 10.586 L 41.495999999999995 10.548 C 40.51 10.034 39.495 9.576 38.458 9.177 L 38.378 9.145999999999999 L 37.692 8.899 C 35.852 8.255999999999998 33.949 7.804999999999999 32.015 7.552 L 31.778000000000002 7.52 L 31.541000000000004 7.494 L 31.084000000000003 7.444 L 30.956000000000003 7.433 L 30.411 7.387 L 29.725 7.345 L 29.477 7.335 L 29.477 24.224 C 30.344 24.314 31.203 24.498 32.036 24.781 L 44.47 12.358 C 44.01001134136577 12.036627620356244 43.540465952879536 11.729155427043525 43.06199999999999 11.435999999999993 z" stroke-linecap="round" />
</g>
		<g transform="matrix(1 0 0 1 -11.47 -15.93)" id="L37GyXUZ0f3207xxV386Y"  >
<path style="stroke: none; stroke-width: 1; stroke-dasharray: none; stroke-linecap: round; stroke-dashoffset: 0; stroke-linejoin: round; stroke-miterlimit: 4; fill: rgb(107,164,58); fill-rule: nonzero; opacity: 1;" vector-effect="non-scaling-stroke"  transform=" translate(-21.03, -16.57)" d="M 14.016 11.873 L 13.721 11.383 z M 13.713 11.382 L 13.715 11.385 z M 27.772 7.327999999999999 L 27.200999999999997 7.339999999999999 C 26.008999999999997 7.387999999999999 24.819999999999997 7.509999999999999 23.639999999999997 7.706999999999999 L 23.561999999999998 7.719999999999999 L 23.067999999999998 7.809999999999999 L 22.781999999999996 7.863999999999999 L 22.491999999999997 7.924999999999999 L 22.011999999999997 8.03 L 21.924999999999997 8.049 C 19.559999999999995 8.600999999999999 17.275999999999996 9.453 15.126999999999997 10.584999999999999 L 13.715999999999998 11.382 L 13.717999999999998 11.385 L 22.413999999999998 25.823 L 22.912999999999997 25.545 L 23.423999999999996 25.287000000000003 C 24.610999999999997 24.721000000000004 25.886999999999997 24.363000000000003 27.195999999999994 24.230000000000004 L 27.766999999999996 24.184000000000005 L 28.337999999999997 24.165000000000006 L 28.337999999999997 7.316 C 28.147 7.316 27.956999999999997 7.324 27.766999999999996 7.327 z" stroke-linecap="round" />
</g>
		<g transform="matrix(1 0 0 1 15.44 -5.48)" id="J3nDOjfbOs1y6KEpgksPZ"  >
<path style="stroke: none; stroke-width: 1; stroke-dasharray: none; stroke-linecap: round; stroke-dashoffset: 0; stroke-linejoin: round; stroke-miterlimit: 4; fill: rgb(77,90,49); fill-rule: nonzero; opacity: 1;" vector-effect="non-scaling-stroke"  transform=" translate(-47.94, -27.02)" d="M 56.651 34.265 L 56.624 33.811 L 56.609 33.584 L 56.554 32.912000000000006 L 56.497 32.31600000000001 L 56.491 32.26800000000001 L 56.488 32.245000000000005 L 56.402 31.603000000000005 C 56.401 31.597000000000005 56.401 31.589000000000006 56.399 31.583000000000006 C 56.205 30.236000000000004 55.914 28.905000000000005 55.528 27.599000000000004 L 55.519999999999996 27.574000000000005 L 55.333 26.967000000000006 L 55.306999999999995 26.887000000000008 L 55.123999999999995 26.342000000000006 L 55.06699999999999 26.195000000000007 L 54.895999999999994 25.72500000000001 L 54.809999999999995 25.49600000000001 L 54.65899999999999 25.10900000000001 L 54.53399999999999 24.80400000000001 L 54.407999999999994 24.50400000000001 L 54.239999999999995 24.12100000000001 L 54.142999999999994 23.90500000000001 L 53.92999999999999 23.45000000000001 L 53.86399999999999 23.31200000000001 L 53.60799999999999 22.794000000000008 L 53.27399999999999 22.151000000000007 C 53.26999999999999 22.145000000000007 53.26699999999999 22.137000000000008 53.262999999999984 22.131000000000007 C 52.77299999999998 21.23100000000001 52.234999999999985 20.357000000000006 51.65099999999998 19.515000000000008 L 39.214 31.957 C 39.495 32.786 39.681 33.644 39.769999999999996 34.515 L 56.66 34.515 L 56.650999999999996 34.265 z" stroke-linecap="round" />
</g>
		<g transform="matrix(1 0 0 1 14.09 13.18)" id="b7AE79NFpvnXqu6QzNIC1"  >
<path style="stroke: none; stroke-width: 1; stroke-dasharray: none; stroke-linecap: round; stroke-dashoffset: 0; stroke-linejoin: round; stroke-miterlimit: 4; fill: rgb(107,164,58); fill-rule: nonzero; opacity: 1;" vector-effect="non-scaling-stroke"  transform=" translate(-46.59, -45.68)" d="M 39.837 35.658 L 39.81 36.229 L 39.778000000000006 36.8 C 39.56100000000001 38.994 38.714000000000006 41.141999999999996 37.23800000000001 42.936 C 37.12400000000001 43.082 36.983000000000004 43.219 36.854000000000006 43.361 L 36.471000000000004 43.785 L 48.384 55.69799999999999 L 48.784 55.285 L 49.184 54.872 C 50.065999999999995 53.918 50.870999999999995 52.918 51.596999999999994 51.88 L 51.681999999999995 51.758 L 51.943999999999996 51.373000000000005 L 52.169999999999995 51.02700000000001 L 52.28399999999999 50.85800000000001 C 55.01599999999999 46.57300000000001 56.477999999999994 41.70500000000001 56.67499999999999 36.799000000000014 L 56.68999999999999 36.228000000000016 L 56.69999999999999 35.65700000000002 L 39.837 35.65700000000002 z" stroke-linecap="round" />
</g>
		<g transform="matrix(1 0 0 1 9.73 -10.73)" id="NGdg_PN8UrZeVdb4pwrlc"  >
<path style="stroke: none; stroke-width: 1; stroke-dasharray: none; stroke-linecap: round; stroke-dashoffset: 0; stroke-linejoin: round; stroke-miterlimit: 4; fill: rgb(66,65,67); fill-rule: nonzero; opacity: 1;" vector-effect="non-scaling-stroke"  transform=" translate(-42.23, -21.77)" d="M 61.689 2.312 C 58.607 -0.77 53.609 -0.77 50.527 2.312 C 48.068 4.771 47.576 8.446 49.041000000000004 11.398 L 31.848 28.591 C 28.896 27.127000000000002 25.22 27.618000000000002 22.762 30.077 C 19.68304438121207 33.1610766123041 19.683044381212067 38.15592338769591 22.762 41.24 C 25.846352423019223 44.31867935956244 30.841199212855763 44.31823191292714 33.925 41.239000000000004 C 36.384 38.78 36.873999999999995 35.105000000000004 35.410999999999994 32.153000000000006 L 52.608999999999995 14.955000000000005 C 55.56099999999999 16.419000000000004 59.236999999999995 15.928000000000006 61.69499999999999 13.469000000000005 C 64.77799999999999 10.388000000000005 64.77799999999999 5.390000000000004 61.69499999999999 2.308000000000005 z" stroke-linecap="round" />
</g>
</g>
</g>
<g transform="matrix(1 0 0 1 3645.74 1285.87)" style="" id="v83j84MYzrgG1nH3HjDf-"  >
		<text xml:space="preserve" font-family="Poppins" font-size="600" font-style="normal" font-weight="600" line-height="1" style="stroke: none; stroke-width: 1; stroke-dasharray: none; stroke-linecap: butt; stroke-dashoffset: 0; stroke-linejoin: miter; stroke-miterlimit: 4; fill: rgb(34,134,58); fill-rule: nonzero; opacity: 1; white-space: pre;" ><tspan x="-1295" y="-575.89" >OpenAPI 3</tspan><tspan x="-194.5" y="-10.9" >&amp;</tspan><tspan x="-1463.25" y="554.11" >Spring Boot</tspan></text>
</g>
</svg>